<?xml version="1.0" encoding="utf-8"?><!-- Uploaded to: SVG Repo, www.svgrepo.com, Generator: SVG Repo Mixer Tools -->
<svg width="800px" height="800px" viewBox="0 0 24 24" fill="none" xmlns="http://www.w3.org/2000/svg">
<path fill-rule="evenodd" clip-rule="evenodd" d="M11.8335 2.83118C11.9442 2.82059 12.0558 2.82059 12.1665 2.83118C12.8536 2.89687 13.2607 3.42504 13.5317 3.88739C13.8109 4.36354 14.0962 5.04007 14.437 5.84817L14.4589 5.90008C14.6741 6.41023 14.8163 6.74541 14.9506 6.99579C15.0778 7.23284 15.1716 7.34168 15.2632 7.41462C15.292 7.43757 15.3218 7.45924 15.3526 7.47955C15.4502 7.54412 15.5828 7.59972 15.8475 7.64743C16.1271 7.69783 16.4899 7.72948 17.0415 7.77647L17.0977 7.78125C17.9715 7.85565 18.7031 7.91794 19.2422 8.0363C19.7657 8.15124 20.3938 8.37516 20.6686 9.0083C20.7129 9.11038 20.7474 9.21645 20.7715 9.32507C20.9214 9.9988 20.5448 10.5492 20.1889 10.9498C19.8223 11.3625 19.267 11.8429 18.6038 12.4168L18.5612 12.4536C18.1425 12.8159 17.8677 13.0547 17.6711 13.2598C17.4849 13.454 17.4104 13.5769 17.3693 13.6865C17.3564 13.721 17.345 13.7561 17.3352 13.7916C17.304 13.9044 17.2921 14.0476 17.3285 14.3142C17.367 14.5957 17.449 14.9505 17.5747 15.4896L17.5875 15.5445C17.7868 16.3986 17.9537 17.1136 18.0077 17.6629C18.0601 18.1963 18.0413 18.8629 17.524 19.3199C17.4406 19.3935 17.3504 19.4591 17.2546 19.5156C16.6601 19.8663 16.0203 19.6783 15.5293 19.4636C15.0235 19.2425 14.3951 18.8628 13.6444 18.4094L13.5962 18.3803C13.1222 18.094 12.8102 17.9064 12.5543 17.7828C12.3121 17.6658 12.1722 17.6329 12.0552 17.6277C12.0184 17.6261 11.9816 17.6261 11.9448 17.6277C11.8278 17.6329 11.6879 17.6658 11.4457 17.7828C11.1898 17.9064 10.8778 18.094 10.4038 18.3803L10.3556 18.4094C9.60492 18.8628 8.97645 19.2425 8.47072 19.4636C7.97966 19.6783 7.33988 19.8663 6.74543 19.5156C6.64959 19.4591 6.55936 19.3935 6.47597 19.3199C5.95873 18.8629 5.93986 18.1963 5.99232 17.6629C6.04634 17.1136 6.21318 16.3986 6.41246 15.5445L6.42526 15.4896C6.55105 14.9505 6.63303 14.5957 6.67151 14.3142C6.70795 14.0476 6.69601 13.9044 6.66479 13.7916C6.65496 13.7561 6.64357 13.721 6.63065 13.6865C6.58959 13.5769 6.51507 13.454 6.32892 13.2598C6.13231 13.0547 5.85747 12.8159 5.43878 12.4536L5.39619 12.4167C4.73294 11.8429 4.17769 11.3625 3.81111 10.9498C3.45515 10.5492 3.07862 9.9988 3.22847 9.32507C3.25263 9.21645 3.28709 9.11038 3.33139 9.0083C3.60617 8.37516 4.23429 8.15124 4.75778 8.0363C5.29689 7.91794 6.02847 7.85565 6.90233 7.78125L6.95846 7.77647C7.51013 7.72948 7.87285 7.69783 8.15249 7.64743C8.41724 7.59972 8.54975 7.54412 8.64743 7.47955C8.67816 7.45924 8.70797 7.43757 8.73679 7.41462C8.82838 7.34168 8.92221 7.23284 9.0494 6.99579C9.18374 6.74541 9.32594 6.41023 9.5411 5.90008L9.56298 5.84819C9.90378 5.04008 10.1891 4.36355 10.4683 3.88739C10.7393 3.42504 11.1464 2.89687 11.8335 2.83118ZM12 4.32434C11.9684 4.34992 11.8894 4.42924 11.7623 4.64606C11.5393 5.02627 11.2916 5.60942 10.9232 6.483L10.9103 6.51351C10.7115 6.98492 10.5426 7.38544 10.3712 7.70499C10.1889 8.04473 9.97841 8.34338 9.67123 8.58801C9.60783 8.63849 9.54223 8.68615 9.47463 8.73085C9.14704 8.9474 8.79798 9.05527 8.41853 9.12365C8.06165 9.18797 7.62854 9.22485 7.11877 9.26825L7.08576 9.27106C6.14108 9.35152 5.50993 9.40689 5.07945 9.5014C4.83396 9.5553 4.7341 9.60594 4.70001 9.6281C4.71457 9.66606 4.76559 9.76572 4.93251 9.95362C5.22523 10.2831 5.70329 10.6989 6.42027 11.3193L6.44534 11.3409C6.83222 11.6757 7.16094 11.9601 7.41185 12.2219C7.67864 12.5002 7.89763 12.7927 8.03536 13.1604C8.06379 13.2363 8.08885 13.3134 8.11046 13.3916C8.21519 13.77 8.20991 14.1353 8.15769 14.5173C8.10858 14.8766 8.00981 15.2999 7.89356 15.7982L7.88603 15.8304C7.67064 16.7537 7.52826 17.3711 7.48512 17.8097C7.46052 18.0599 7.47782 18.1705 7.48836 18.2097C7.52896 18.2076 7.63951 18.1899 7.8698 18.0892C8.27362 17.9126 8.81677 17.5865 9.62833 17.0963L9.65669 17.0792C10.0946 16.8146 10.4667 16.5899 10.7932 16.4322C11.1404 16.2644 11.4862 16.1465 11.8785 16.1292C11.9595 16.1256 12.0405 16.1256 12.1215 16.1292C12.5138 16.1465 12.8596 16.2644 13.2068 16.4322C13.5333 16.5899 13.9054 16.8147 14.3433 17.0792L14.3717 17.0963C15.1832 17.5865 15.7264 17.9126 16.1302 18.0892C16.3605 18.1899 16.471 18.2076 16.5116 18.2097C16.5222 18.1705 16.5395 18.0599 16.5149 17.8097C16.4717 17.3711 16.3294 16.7537 16.114 15.8304L16.1064 15.7981C15.9902 15.2999 15.8914 14.8766 15.8423 14.5173C15.7901 14.1353 15.7848 13.77 15.8895 13.3916C15.9112 13.3134 15.9362 13.2363 15.9646 13.1604C16.1024 12.7927 16.3214 12.5002 16.5881 12.2219C16.8391 11.9601 17.1678 11.6757 17.5546 11.341L17.5797 11.3193C18.2967 10.6989 18.7748 10.2831 19.0675 9.95362C19.2344 9.76572 19.2854 9.66606 19.3 9.6281C19.2659 9.60594 19.166 9.5553 18.9206 9.5014C18.4901 9.40689 17.8589 9.35152 16.9142 9.27106L16.8812 9.26825C16.3715 9.22485 15.9383 9.18797 15.5815 9.12365C15.202 9.05527 14.853 8.9474 14.5254 8.73085C14.4578 8.68615 14.3922 8.63849 14.3288 8.58801C14.0216 8.34338 13.8111 8.04473 13.6288 7.70499C13.4574 7.38545 13.2885 6.98492 13.0897 6.51352L13.0768 6.483C12.7083 5.60942 12.4607 5.02627 12.2377 4.64606C12.1106 4.42924 12.0316 4.34992 12 4.32434Z" fill="#000000"/>
</svg>